,
.   http://www.scenetime.com/signup.php  ---&gt;  Hottest scene tracker on the net !!!
 
Scenetime lucky draw is started , join now and be the winner . offer is limited 

    Join Now   http://www.scenetime.com/signup.php

    seed back for speed


 



...................................NFO:.................................................
ooooooooooooo ooooooooo.    o8o  ooooo      ooo  o8o  ooooooooooooo oooooo   oooo 
8'   888   `8 `888   `Y88.  `"'  `888b.     `8'  `"'  8'   888   `8  `888.   .8'  
     888       888   .d88' oooo   8 `88b.    8  oooo       888        `888. .8'   
     888       888ooo88P'  `888   8   `88b.  8  `888       888         `888.8'    
     888       888`88b.     888   8     `88b.8   888       888          `888'     
     888       888  `88b.   888   8       `888   888       888           888      
    o888o     o888o  o888o o888o o8o        `8  o888o     o888o         o888o  
                                     ___________                    ______
                              ______ ___  /__  /____  _____________ __  /
                              _  __ `/_  /__  /__  / / /  ___/  __ `/  __/
                              / /_/ /_  / _  / _  /_/ // /__ / /_/ // /
                              \__,_/ /_/  /_/  _\__, / \___/ \__,_/ \__/ 
                                               /____/








EnCoDer:Allycat



General
Complete name                    : Final Destination 5 2011 720p BDRip XVID AC3-TRiNiTY.avi
Format                           : AVI
Format/Info                      : Audio Video Interleave
Format profile                   : OpenDML
File size                        : 2.48 GiB
Duration                         : 1h 31mn
Overall bit rate                 : 3 864 Kbps
Writing library                  : VirtualDub build 30091/release

Video
ID                               : 0
Format                           : MPEG-4 Visual
Format profile                   : Advanced Simple@L5
Format settings, BVOP            : 1
Format settings, QPel            : No
Format settings, GMC             : No warppoints
Format settings, Matrix          : Default (H.263)
Muxing mode                      : Packed bitstream
Codec ID                         : XVID
Codec ID/Hint                    : XviD
Duration                         : 1h 31mn
Bit rate                         : 3 405 Kbps
Width                            : 1 280 pixels
Height                           : 528 pixels
Display aspect ratio             : 2.40:1
Frame rate                       : 23.976 fps
Color space                      : YUV
Chroma subsampling               : 4:2:0
Bit depth                        : 8 bits
Scan type                        : Progressive
Compression mode                 : Lossy
Bits/(Pixel*Frame)               : 0.210
Stream size                      : 2.18 GiB (88%)
Writing library                  : XviD 1.2.1 (UTC 2008-12-04)

Audio
ID                               : 1
Format                           : AC-3
Format/Info                      : Audio Coding 3
Mode extension                   : CM (complete main)
Codec ID                         : 2000
Duration                         : 1h 31mn
Bit rate mode                    : Constant
Bit rate                         : 448 Kbps
Channel(s)                       : 6 channels
Channel positions                : Front: L C R, Side: L R, LFE
Sampling rate                    : 48.0 KHz
Bit depth                        : 16 bits
Compression mode                 : Lossy
Stream size                      : 294 MiB (12%)
Alignment                        : Aligned on interleaves
Interleave, duration             : 42 ms (1.00 video frame)
Interleave, preload duration     : 512 ms